<svg xmlns="http://www.w3.org/2000/svg" version="1.1" xmlns:xlink="http://www.w3.org/1999/xlink" xmlns:svgjs="http://svgjs.dev/svgjs" width="2000" height="2250" viewBox="0 0 2000 2250"><g transform="matrix(1,0,0,1,0.000015624999718966137,0)"><svg viewBox="0 0 320 360" data-background-color="#051726" preserveAspectRatio="xMidYMid meet" height="2250" width="2000" xmlns="http://www.w3.org/2000/svg" xmlns:xlink="http://www.w3.org/1999/xlink"><g id="tight-bounds" transform="matrix(1,0,0,1,0.0000025000000505315256,0)"><svg viewBox="0 0 320 360" height="360" width="320"><g><svg></svg></g><g><svg viewBox="0 0 320 360" height="360" width="320"><g><path transform="translate(-19.44751,3.1739) scale(3.53591,3.53591)" d="M67.6 10.7c0.2 0 1.8 0.8 2.7 1.1-0.3 0.1-1-0.2-1.8-0.5 0.2 0 0.6 0.1 1 0.3-0.2-0.2-1.7-0.7-1.9-0.9M52.7 7.6c0.3-0.1 3.8 0.4 5.4 0.5 0.1-0.1-0.2-0.1-0.6-0.2 0.5-0.1 1.5 0.2 2.2 0.3-2.1 0.1-4.4-0.5-6.4-0.3-0.7 0-0.2-0.2-0.6-0.3M49.8 7.6c1.8 0 3.2 0 0.6 0.2-0.3-0.1-0.7-0.1-0.6-0.2M78.1 15.9c0.2 0 1 0.9 1.4 1.2-0.1 0.1-0.9-0.7-1.3-1 0.1 0.1 0 0-0.1-0.2M76.1 14.6c-0.8-0.7-1.1-0.7-1.2-1.1 0.7 0.4 1.2 0.8 1.2 1.1M63.2 8.3c0.1-0.1 0.3 0.1 0.8 0.2-0.6-0.1-0.5 0-0.3 0.2-0.7-0.1-0.9-0.2-0.7-0.4 0.4 0.2 0.5 0.1 0.2 0M34.8 9.5c0-0.1 0.4-0.3 0.7-0.4-0.3 0.2-0.2 0.3 0.3 0.1 0 0.1-0.6 0.3-1 0.5 0.2-0.1 0.4-0.4 0-0.2M65.2 7.3c-0.3 0.1-1.4-0.5-2.5-0.7-0.6-0.2 2.4 0.5 2.5 0.7M6.2 56.7c0.6 2.5 0.2 2.4 0 0M6.3 41.7c0.1-0.4 0.2-1.5 0.3-1.4-0.3 2.4-0.8 3.5-0.9 5.3 0.3-1.6-0.1 0.9-0.2 1.5 0.1 0.8 0.1-0.5 0.3-0.3 0.2 0.3-0.4 4.5-0.2 2.2-0.2 2.1 0 4.4 0.4 5-0.5 3.2 2 10.4 2.5 11.9 0.1 0.1 0-0.5 0.2-0.1 0.2 1.3 1.1 2.2 1.4 3.6 0.3 0.4 1.5 2.6 1.7 3.1 0.4 0.8 0.6 0.7 1 1.5 1.2 2.3 3.1 4.5 4.9 6.6 5.8 6.8 14.7 12.4 24.6 14.4 9.9 2.1 20.3 0.6 28.4-3.3 0.5-0.3 0.4-0.4 1-0.6 2.8-0.9 6.2-3.8 8.1-4.9 0.9-1 3.3-2.7 3.6-3.7 1.7-1.4 3.4-3.7 4.3-5.2 0.5-0.8 0.9-0.8 1.1-1.3-0.1 0 1.6-2.1 2.1-3.3-0.2 0-0.5 0.6-0.5 0 3.6-6.9 5.6-16.2 4.5-22.6 0.2 7.9-1.8 16.7-5.6 22.3-1.7 3.6-5.2 7.5-8.4 10.3-0.5 0.5-1 1.1-1.6 1.5-1.9 1.6-4 2.9-6.2 4.1-5.2 2.9-11 5.4-17.8 5.5 11.7-1 22.2-6.9 28-14.1-4.4 4.3-6.3 6-11.2 8.5-0.4 0.7-3.7 2.1-5.9 2.7 1.3-0.6 4-1.6 4.9-2.4-7.3 3.5-15.4 5.5-23 4.4 2.9 0 7 0.1 10.9-0.6 0.6-0.2 0.9-0.4 1.6-0.5 7.6-1.7 14.9-5.4 20.1-10.6-3 2.7-7.5 5.9-10.4 6.9 2.7-1.5 7.6-4.4 9.2-6.6-3.2 3.2-9.2 6.4-13 7.8-0.6 0.1 0.4-0.4-0.6 0-1.2 0.3-0.7 0.3-1 0.5-4.6 1.3-9.9 2.4-14.3 2-0.8-0.1-1.1-0.3-1.8-0.3-0.8-0.1-1.5-0.1-2.4-0.1-3.5-0.4-7.3-1.8-10.1-3-1.5-0.7-3-1.2-4.5-2.1-1.2-0.7-2.2-1.5-3.2-2.3-3.8-2.8-7-5.6-10-9.6-5.4-7.5-8.2-16.9-7.8-26.2 0.4-9.3 4.1-18.4 10-25.1-0.3 0.3 0.4-0.7 1-1.3 0 0.2-0.1 0.5 0.6-0.2 0.6-0.7-0.2-0.2 0.1-0.6 6.2-6.8 17-12.3 28.1-12.5 0.4-0.3 1.1-0.7 1.9-0.5 0 0.1-0.5 0.1-0.5 0.1 1.1-0.1 2.1-0.1 2.6 0.1 0.1-0.1-0.4-0.2 0-0.2 0.7 0.2 0.9 0 1.3 0.2-0.3 0-0.6 0-0.8 0.1 2.5 0 4.1 0.6 6.6 0.8-1.3-0.3-1.6-0.3-2.6-0.6 1.1 0.2 1.6 0.4 2.1 0.3-0.2 0-0.1-0.3 0.1-0.2 2 0.5 2.2 0.7 4.3 1.4 0.2-0.2-0.9-0.3-1.2-0.6 2 0.7 3.8 1.2 5 2-0.4-0.3-1.6-0.7-2.5-1.1-0.1 0.1 0.3 0.2 0.4 0.4-1-0.5-2.4-1-3.8-1.2 1.2 0.3 2 0.7 2.5 0.9-1.1-0.2-2.5-0.9-4.1-1.2 2.6 0.8 7.5 2.6 10.5 4.2-1.1-0.7-2.4-1.2-3.1-1.6 0.6 0.1 1.3 0.5 1.3 0.3 0.7 0.3 1.6 1 2.1 1.1-0.9-0.6-2.7-1.5-3.3-1.8 7.5 3.4 14.2 9.1 18.5 16.4 0.4 0.7 1 2.3 1.5 2.5-0.1-0.5-0.5-0.8-0.9-1.6 0.2 0 0.2-0.3 0-0.6-0.4-0.5 0 0.4-0.4-0.1-1.8-3.3-4-6.2-7.4-9.4 1.9 1.8 0.5 0.5 0.1-0.1 2.6 2.3 5.6 6.2 6.9 8.2-0.2-0.3-0.3-0.5-0.2-0.5 2.4 4.1 3.9 7.8 5.4 13.1 0.1 0.1 0-0.4 0.2-0.1 1 4.2 1.3 7.7 1.2 10.9 0.8-5.4-1-13.8-4.2-20.4-0.4-0.8-0.4-0.2-0.8-1.1 0-0.3-0.3-0.9-0.5-1.3-4-6.6-8.9-11.3-14.7-15 0.4 0.2 1.2 0.8 1.2 0.7-10.8-7.1-23.3-8.1-33.6-5.9-0.7 0.3-1 0.6-1.8 1 1.5-0.5 2.4-0.6 3.8-0.9 0.3-0.3-1.3 0.1-0.6-0.2 0.1 0.1 1.4-0.2 1.7-0.1 0 0.1-0.4 0.2-0.5 0.3 3.3-0.7 6.7-0.8 9.6-0.6-1.7 0.1-4.8-0.2-5.8 0.3 1-0.1 2.4-0.2 3.3-0.1-1.2 0-3.4 0.1-4.4 0.2-0.1-0.1 1.6-0.3 0.5-0.3-0.5 0.1-1.3 0.1-1.6 0.4-8.6 0.8-17 5.3-22.9 10.6-1.2 1-2.6 2.1-3.5 3.2-2.2 2.5-3.6 5-5.2 7.2 1-2.1 3.2-5.3 5.8-8 2.6-2.7 5.4-5 6.9-6.2 0 0.4 2.4-1.5 3.3-2.1-0.6 0.5 0.4-0.2 0.6-0.1 3.2-1.9 5.8-2.6 8.7-3.7-0.7 0.2-1.3 0.4-1.4 0.3 0.7-0.2 1.1-0.4 1-0.5-2.8 0.8-7.2 2.7-10.7 4.8 6.3-4.3 14.3-6.9 22.2-7 7.9-0.2 15.6 1.8 21.7 5 4.1 1.8 8 5.1 11.1 8.3 0.9 0.8 0.2-0.2 1.5 1.2-0.4-0.2-0.7-0.4-0.2 0.2 0.8 0.9-0.2-0.7 1.1 0.9-0.1 0-0.5-0.5-0.5-0.3 3.5 3.1 6.2 8.7 7.8 12.4-0.4-1.5-1.4-3.6-2.2-5.1 2.4 4.4 3.2 7 4.2 10.9 0.4 0.3-0.2-1.4 0.2-0.6 0.1 0.6 0.2 2.5 0.6 2.8-0.3-1.9-0.8-4.2-1.2-4.6 0.3 0.2-0.5-2.3-1-2.9-0.2-1.6-1.6-4.4-2.8-6.5-4.3-8.4-12-15.3-20.6-19.1 0-0.2-0.5-0.4-0.7-0.6-8.5-3.6-18.7-4.6-28.5-2.3-9.9 2.4-19.2 8.1-25.8 16.3 0.3-1 2.8-2.9 2.9-3.7-2.9 3.1-6 7.2-8.1 11.6-2.2 4.4-3.4 8.9-3.9 12.2" fill="#000000" fill-rule="nonzero" stroke="none" stroke-width="1" stroke-linecap="butt" stroke-linejoin="miter" stroke-miterlimit="10" stroke-dasharray="" stroke-dashoffset="0" font-family="none" font-weight="none" font-size="none" text-anchor="none" style="mix-blend-mode: normal" data-fill-palette-color="tertiary"></path></g><g transform="matrix(1,0,0,1,48.000000000000014,139.24429252058883)"><svg viewBox="0 0 223.99999999999997 81.51141495882237" height="81.51141495882237" width="223.99999999999997"><g><svg viewBox="0 0 380.42239869918694 138.432" height="81.51141495882237" width="223.99999999999997"><g transform="matrix(1,0,0,1,156.42239869918697,40.95767093766938)"><svg viewBox="0 0 224 56.51665812466124" height="56.51665812466124" width="224"><g id="textblocktransform"><svg viewBox="0 0 224 56.51665812466124" height="56.51665812466124" width="224" id="textblock"><g><svg viewBox="0 0 224 30.482384823848236" height="30.482384823848236" width="224"><g transform="matrix(1,0,0,1,0,0)"><svg width="224" viewBox="2.5 -35.1 258.28 35.15" height="30.482384823848236" data-palette-color="#ffffff"><path d="M5.8-32.25L2.5-32.25 2.5-35 12.6-35 12.6-32.25 9.2-32.25 9.2-2.75 12.6-2.75 12.6 0 2.5 0 2.5-2.75 5.8-2.75 5.8-32.25ZM19.65-32.25L16.45-32.25 16.45-35 23.3-35 43.2-4.5 43-32.25 39.75-32.25 39.75-35 49.3-35 49.3-32.25 46.15-32.25 46.15 0 42.5 0 22.55-30.5 22.75-2.75 26.55-2.75 26.55 0 16.45 0 16.45-2.75 19.65-2.75 19.65-32.25ZM101.04 0L90.94 0 90.94-2.75 93.99-2.75 91.69-9.25 76.29-9.25 74.04-2.75 77.64-2.75 77.64 0 67.54 0 67.54-2.75 70.84-2.75 82.49-35 85.54-35 97.59-2.75 101.04-2.75 101.04 0ZM90.79-11.75L83.84-31.2 77.14-11.75 90.79-11.75ZM138.29-32.25L125.99-32.25 125.99-18.85 136.89-18.85 136.89-22 139.64-22 139.64-13.4 136.89-13.4 136.89-16.1 125.99-16.1 125.99-2.75 129.64-2.75 129.64 0 119.54 0 119.54-2.75 122.59-2.75 122.59-32.25 119.54-32.25 119.54-35 140.79-35 140.74-34.7 141.39-27.8 138.89-27.4 138.29-32.25ZM147.99-32.25L144.89-32.25 144.89-35 154.99-35 154.99-32.25 151.39-32.25 151.39-2.75 164.09-2.75 164.84-9 167.29-8.75 166.74-2.75 166.79-2.75 166.74-2.65 166.54 0 166.04-0.05 166.04 0 144.89 0 144.89-2.75 147.99-2.75 147.99-32.25ZM202.48 0L192.38 0 192.38-2.75 195.43-2.75 193.13-9.25 177.73-9.25 175.48-2.75 179.08-2.75 179.08 0 168.98 0 168.98-2.75 172.28-2.75 183.93-35 186.98-35 199.03-2.75 202.48-2.75 202.48 0ZM192.23-11.75L185.28-31.2 178.58-11.75 192.23-11.75ZM214.68-2.95L214.68-2.95Q220.23-2.95 222.93-5.75L222.93-5.75Q224.48-7.35 224.48-9.55 224.48-11.75 223.41-13.18 222.33-14.6 220.63-15.38 218.93-16.15 216.86-16.73 214.78-17.3 212.71-17.95 210.63-18.6 208.93-19.5 207.23-20.4 206.16-22.05 205.08-23.7 205.08-26L205.08-26Q205.08-30 208.08-32.55 211.08-35.1 216.03-35.1 220.98-35.1 225.33-34.1L225.33-34.1 225.33-34.05 225.48-34.05 226.03-27.8 223.58-27.4 223.03-31.6Q220.23-32.1 216.86-32.1 213.48-32.1 210.98-30.63 208.48-29.15 208.48-26.45 208.48-23.75 210.48-22.35 212.48-20.95 215.33-20.23 218.18-19.5 221.03-18.6 223.88-17.7 225.88-15.5 227.88-13.3 227.88-9.7L227.88-9.7Q227.88-4.85 224.28-2.4 220.68 0.05 215.33 0.05L215.33 0.05Q208.58 0.05 204.03-3L204.03-3 204.08-8.3 206.53-8.55 206.63-4.75Q210.43-2.95 214.68-2.95ZM260.78 0L250.68 0 250.68-2.75 254.08-2.75 254.08-15.85 237.03-15.85 237.03-2.75 240.73-2.75 240.73 0 230.63 0 230.63-2.75 233.88-2.75 233.88-32.25 230.63-32.25 230.63-35 240.73-35 240.73-32.25 237.03-32.25 237.03-18.85 254.08-18.85 254.08-32.25 250.68-32.25 250.68-35 260.28-35 260.28-32.25 257.23-32.25 257.23-2.75 260.78-2.75 260.78 0Z" opacity="1" transform="matrix(1,0,0,1,0,0)" fill="#000000" class="wordmark-text-0" data-fill-palette-color="primary" id="text-0"></path></svg></g></svg></g><g transform="matrix(1,0,0,1,0,37.67854430352303)"><svg viewBox="0 0 111.94558808701022 18.838113821138208" height="18.838113821138208" width="111.94558808701022"><g transform="matrix(1,0,0,1,0,0)"><svg width="111.94558808701022" viewBox="2.2 -38.75 289.37 48.7" height="18.838113821138208" data-palette-color="#81ffd9"><path d="M10.4 0L5.75 0 5.75-16.55 2.2-16.55 2.2-20.7 5.75-20.7 5.75-29.45Q5.75-33.95 7.78-36.35 9.8-38.75 13.75-38.75L13.75-38.75Q14.8-38.75 16.07-38.45 17.35-38.15 18.3-37.45L18.3-37.45 16.35-34.1Q15.9-34.55 15.35-34.73 14.8-34.9 14.25-34.9L14.25-34.9Q12.4-34.9 11.4-33.65 10.4-32.4 10.4-29.4L10.4-29.4 10.4-20.7 16.95-20.7 16.95-16.55 10.4-16.55 10.4 0ZM20.1-10.55L20.1-10.55Q20.1-13.65 21.57-16.15 23.05-18.65 25.65-20.1 28.25-21.55 31.55-21.55L31.55-21.55Q34.95-21.55 37.5-20.1 40.05-18.65 41.45-16.15 42.85-13.65 42.85-10.55L42.85-10.55Q42.85-7.45 41.45-4.93 40.05-2.4 37.47-0.95 34.9 0.5 31.5 0.5L31.5 0.5Q28.2 0.5 25.62-0.88 23.05-2.25 21.57-4.73 20.1-7.2 20.1-10.55ZM24.75-10.5L24.75-10.5Q24.75-8.5 25.65-6.88 26.55-5.25 28.07-4.3 29.6-3.35 31.45-3.35L31.45-3.35Q33.4-3.35 34.92-4.3 36.45-5.25 37.3-6.88 38.15-8.5 38.15-10.5L38.15-10.5Q38.15-12.5 37.3-14.13 36.45-15.75 34.92-16.73 33.4-17.7 31.45-17.7L31.45-17.7Q29.55-17.7 28.02-16.7 26.5-15.7 25.62-14.08 24.75-12.45 24.75-10.5ZM47.34-10.55L47.34-10.55Q47.34-13.65 48.82-16.15 50.3-18.65 52.89-20.1 55.49-21.55 58.8-21.55L58.8-21.55Q62.2-21.55 64.75-20.1 67.3-18.65 68.69-16.15 70.09-13.65 70.09-10.55L70.09-10.55Q70.09-7.45 68.69-4.93 67.3-2.4 64.72-0.95 62.14 0.5 58.74 0.5L58.74 0.5Q55.45 0.5 52.87-0.88 50.3-2.25 48.82-4.73 47.34-7.2 47.34-10.55ZM51.99-10.5L51.99-10.5Q51.99-8.5 52.89-6.88 53.8-5.25 55.32-4.3 56.84-3.35 58.7-3.35L58.7-3.35Q60.64-3.35 62.17-4.3 63.7-5.25 64.55-6.88 65.39-8.5 65.39-10.5L65.39-10.5Q65.39-12.5 64.55-14.13 63.7-15.75 62.17-16.73 60.64-17.7 58.7-17.7L58.7-17.7Q56.8-17.7 55.27-16.7 53.74-15.7 52.87-14.08 51.99-12.45 51.99-10.5ZM84.79 0.5L84.79 0.5Q81.94 0.5 79.62-0.88 77.29-2.25 75.94-4.78 74.59-7.3 74.59-10.6L74.59-10.6Q74.59-14.05 76.02-16.5 77.44-18.95 79.89-20.25 82.34-21.55 85.39-21.55L85.39-21.55Q87.84-21.55 90.07-20.5 92.29-19.45 93.54-17.6L93.54-17.6 93.34-15.95 93.34-38.7 97.94-38.7 97.94 0 93.29 0 93.29-5.15 93.79-3.85Q92.34-1.95 90.04-0.73 87.74 0.5 84.79 0.5ZM86.24-3.45L86.24-3.45Q88.09-3.45 89.54-4.13 90.99-4.8 91.94-6 92.89-7.2 93.29-8.85L93.29-8.85 93.29-12.75Q92.89-14.25 91.87-15.38 90.84-16.5 89.42-17.18 87.99-17.85 86.24-17.85L86.24-17.85Q84.34-17.85 82.77-16.93 81.19-16 80.24-14.4 79.29-12.8 79.29-10.7L79.29-10.7Q79.29-8.65 80.24-7.03 81.19-5.4 82.79-4.42 84.39-3.45 86.24-3.45ZM130.24 0.5L130.24 0.5Q127.39 0.5 125.06-0.88 122.74-2.25 121.39-4.78 120.04-7.3 120.04-10.6L120.04-10.6Q120.04-14.05 121.46-16.5 122.89-18.95 125.34-20.25 127.79-21.55 130.84-21.55L130.84-21.55Q133.29-21.55 135.51-20.5 137.74-19.45 138.99-17.6L138.99-17.6 138.79-15.95 138.79-38.7 143.39-38.7 143.39 0 138.74 0 138.74-5.15 139.24-3.85Q137.79-1.95 135.49-0.73 133.19 0.5 130.24 0.5ZM131.69-3.45L131.69-3.45Q133.54-3.45 134.99-4.13 136.44-4.8 137.39-6 138.34-7.2 138.74-8.85L138.74-8.85 138.74-12.75Q138.34-14.25 137.31-15.38 136.29-16.5 134.86-17.18 133.44-17.85 131.69-17.85L131.69-17.85Q129.79-17.85 128.21-16.93 126.64-16 125.69-14.4 124.74-12.8 124.74-10.7L124.74-10.7Q124.74-8.65 125.69-7.03 126.64-5.4 128.24-4.42 129.84-3.45 131.69-3.45ZM161.09 0.5L161.09 0.5Q157.53 0.5 154.99-0.93 152.44-2.35 151.06-4.83 149.69-7.3 149.69-10.5L149.69-10.5Q149.69-13.55 151.24-16.05 152.78-18.55 155.38-20.05 157.99-21.55 161.19-21.55L161.19-21.55Q165.28-21.55 167.99-19.15 170.69-16.75 171.63-12.55L171.63-12.55 154.59-6.55 153.49-9.3 167.49-14.4 166.49-13.75Q165.88-15.4 164.49-16.63 163.09-17.85 160.84-17.85L160.84-17.85Q158.94-17.85 157.44-16.93 155.94-16 155.09-14.4 154.24-12.8 154.24-10.75L154.24-10.75Q154.24-8.6 155.13-6.98 156.03-5.35 157.61-4.42 159.19-3.5 161.19-3.5L161.19-3.5Q162.53-3.5 163.81-4 165.09-4.5 166.19-5.3L166.19-5.3 168.34-1.85Q166.78-0.8 164.86-0.15 162.94 0.5 161.09 0.5ZM177.48 0L177.48-38.7 182.13-38.7 182.13 0 177.48 0ZM190.18 0L190.18-20.7 194.83-20.7 194.83 0 190.18 0ZM189.83-28.2L189.83-28.2Q189.83-29.3 190.7-30.05 191.58-30.8 192.63-30.8L192.63-30.8Q193.68-30.8 194.5-30.05 195.33-29.3 195.33-28.2L195.33-28.2Q195.33-27.05 194.5-26.33 193.68-25.6 192.63-25.6L192.63-25.6Q191.58-25.6 190.7-26.35 189.83-27.1 189.83-28.2ZM211.53 0.6L211.28 0.6 199.78-20.7 205.28-20.7 213.08-4.25 210.23-4.35 217.38-20.7 222.58-20.7 211.53 0.6ZM236.67 0.5L236.67 0.5Q233.12 0.5 230.57-0.93 228.02-2.35 226.65-4.83 225.27-7.3 225.27-10.5L225.27-10.5Q225.27-13.55 226.82-16.05 228.37-18.55 230.97-20.05 233.57-21.55 236.77-21.55L236.77-21.55Q240.87-21.55 243.57-19.15 246.27-16.75 247.22-12.55L247.22-12.55 230.17-6.55 229.07-9.3 243.07-14.4 242.07-13.75Q241.47-15.4 240.07-16.63 238.67-17.85 236.42-17.85L236.42-17.85Q234.52-17.85 233.02-16.93 231.52-16 230.67-14.4 229.82-12.8 229.82-10.75L229.82-10.75Q229.82-8.6 230.72-6.98 231.62-5.35 233.2-4.42 234.77-3.5 236.77-3.5L236.77-3.5Q238.12-3.5 239.4-4 240.67-4.5 241.77-5.3L241.77-5.3 243.92-1.85Q242.37-0.8 240.45-0.15 238.52 0.5 236.67 0.5ZM253.07-20.7L257.22-20.7 257.67-14.7 257.42-15.5Q258.22-17.4 259.75-18.73 261.27-20.05 262.95-20.78 264.62-21.5 265.87-21.5L265.87-21.5 265.62-16.9Q263.27-17.05 261.5-16 259.72-14.95 258.7-13.2 257.67-11.45 257.67-9.45L257.67-9.45 257.67 0 253.07 0 253.07-20.7ZM278.22 9.95L273.62 9.95 287.27-20.7 291.57-20.7 278.22 9.95ZM282.37-2.2L278.72 0.15 268.77-20.7 274.02-20.7 282.37-2.2Z" opacity="1" transform="matrix(1,0,0,1,0,0)" fill="#000000" class="slogan-text-1" data-fill-palette-color="secondary" id="text-1"></path></svg></g></svg></g></svg></g></svg></g><g><svg viewBox="0 0 138.432 138.432" height="138.432" width="138.432"><g><svg viewBox="0 0 138.432 138.432" height="138.432" width="138.432"><g transform="matrix(1,0,0,1,37.43398037025027,36.587264688927945)"><svg viewBox="0 0 63.56403925949946 65.2574706221441" height="65.2574706221441" width="63.56403925949946"><g><svg xmlns="http://www.w3.org/2000/svg" xmlns:xlink="http://www.w3.org/1999/xlink" version="1.1" x="0" y="0" viewBox="0 0 97.405 100" enable-background="new 0 0 97.404 100" xml:space="preserve" width="63.56403925949946" height="65.2574706221441" class="icon-cg-0" data-fill-palette-color="accent" id="cg-0"><path d="M83.45 91.914c0 0.657-1.041 2.378-2.326 2.378l-69.765-1.189c-1.284 0-2.326-0.532-2.326-1.189l0 0c0-0.657 1.041-1.189 2.326-1.189l69.765-1.189C82.409 89.535 83.45 91.257 83.45 91.914L83.45 91.914z" fill="#000000" data-fill-palette-color="accent"></path><path d="M83.45 97.622c0 0.657-1.041 2.378-2.326 2.378l-69.765-1.189c-1.284 0-2.326-0.532-2.326-1.189l0 0c0-0.657 1.041-1.189 2.326-1.189l69.765-1.189C82.409 95.243 83.45 96.965 83.45 97.622L83.45 97.622z" fill="#000000" data-fill-palette-color="accent"></path><path d="M51.34 28.356c0-0.088-0.019-0.174-0.052-0.257 0.841-0.244 1.394-0.637 1.394-1.084 0-0.741-1.502-1.342-3.354-1.342-0.24 0-0.474 0.011-0.7 0.03-0.144-3.029-1.27-5.397-2.655-5.397-0.143 0-0.281 0.046-0.418 0.095-0.481-1.07-1.344-1.929-2.422-2.394 0.092-0.123 0.156-0.25 0.156-0.384 0-0.741-1.502-1.342-3.354-1.342-1.501 0-2.757 0.397-3.185 0.941-0.828-0.588-1.801-0.941-2.853-0.941-2.088 0-3.878 1.355-4.765 3.314-0.979-0.34-2.114-0.558-3.335-0.614 0.001-0.009 0.001-0.018 0.002-0.027 0.017 0.001 0.031 0.01 0.048 0.01 0.741 0 1.342-0.601 1.342-1.342 0-0.741-0.601-1.342-1.342-1.342-0.11 0-0.208 0.038-0.311 0.063-0.53-1.617-1.689-2.746-3.043-2.746-0.848 0-1.614 0.455-2.204 1.182-0.687-0.729-1.545-1.182-2.492-1.182-1.488 0-2.773 1.089-3.469 2.69-1.432 0.03-2.625 0.597-3.055 1.377-2.361 0.212-4.209 1.903-4.209 3.983 0 0.487 0.116 0.948 0.301 1.38-0.1-0.014-0.198-0.038-0.301-0.038-1.482 0-2.683 1.502-2.683 3.354 0 0.242 0.023 0.478 0.062 0.705-0.812 0.086-1.403 0.337-1.403 0.636 0 0.356 0.835 0.645 1.888 0.667 0.019 0.031 0.04 0.06 0.06 0.09-1.122 0.241-1.947 1.007-1.947 1.926 0 1.111 1.201 2.012 2.683 2.012 0.447 0 0.862-0.09 1.233-0.235 1.424 0.946 3.941 1.576 6.817 1.576 2.136 0 4.073-0.349 5.514-0.915 2.779 0.572 6.2 0.915 9.915 0.915 6.669 0 12.411-1.093 15.114-2.671 0.456 0.819 1.027 1.329 1.657 1.329 0.457 0 0.88-0.28 1.256-0.733 0.984 0.444 2.45 0.733 4.11 0.733 2.964 0 5.367-0.901 5.367-2.012S54.304 28.356 51.34 28.356zM38.231 18.773c-0.001 0.001-0.003 0.003-0.005 0.004-0.001-0.002-0.003-0.004-0.004-0.006C38.225 18.772 38.228 18.772 38.231 18.773z" fill="#000000" data-fill-palette-color="accent"></path><path d="M86.853 75.584c-0.853-3.26-8.814-5.815-18.519-5.815-7.181 0-13.401 1.401-16.502 3.449-2.441-0.699-5.608-1.124-9.079-1.124-2.078 0-4.042 0.155-5.814 0.427 4.8 0.735 8.139 2.348 8.139 4.224 0 1.876-3.34 3.489-8.139 4.224 1.772 0.271 3.736 0.427 5.814 0.427 4.129 0 7.828-0.601 10.383-1.552 3.368 1.64 8.913 2.714 15.198 2.714 8.962 0 16.441-2.179 18.206-5.079-1.397-0.63-3.256-1.139-5.416-1.47C82.872 75.741 84.807 75.588 86.853 75.584zM75.892 74.419c-0.963 0-1.744-0.521-1.744-1.163 0-0.642 0.781-1.163 1.744-1.163s1.744 0.521 1.744 1.163C77.636 73.899 76.855 74.419 75.892 74.419z" fill="#000000" data-fill-palette-color="accent"></path><path d="M85.903 81.19c-4.215 2.676-11.589 3.694-17.569 3.694-5.973 0-11.479-0.92-15.317-2.541-2.825 0.892-6.423 1.379-10.264 1.379-2.126 0-4.201-0.153-6.166-0.454l-4.386-1.969c-5.025 0.501-8.052 1.142-8.052 1.842 0 1.605 15.878 2.907 35.464 2.907s35.464-1.301 35.464-2.907C95.078 82.389 91.601 81.706 85.903 81.19z" fill="#000000" data-fill-palette-color="accent"></path><path d="M51.34 34.707c-1.312 0-2.565-0.155-3.655-0.445-0.638 0.349-1.242 0.445-1.711 0.445-0.545 0-1.399-0.134-2.264-0.802-3.429 1.342-8.741 2.144-14.506 2.144-3.475 0-6.824-0.288-9.736-0.835-1.651 0.541-3.642 0.835-5.693 0.835-2.756 0-5.286-0.508-7.139-1.415-0.301 0.049-0.605 0.074-0.911 0.074-1.875 0-3.46-0.859-4.32-2.147H0c0 16.301 13.215 29.516 29.516 29.516 16.301 0 29.516-13.215 29.516-29.516h-0.86C56.961 33.908 54.538 34.707 51.34 34.707z" fill="#000000" data-fill-palette-color="accent"></path><path d="M29.516 64.402c-4.551 0-8.878-0.967-12.797-2.694-0.383 0.58-0.619 1.32-0.619 2.135 0 1.852 2.558 3.6 4.025 3.6h17.441c1.467 0 4.025-1.748 4.025-3.6 0-0.616-0.139-1.185-0.368-1.68C37.596 63.602 33.649 64.402 29.516 64.402z" fill="#000000" data-fill-palette-color="accent"></path><path d="M95.613 16.523c-0.767-1.686-2.756-3.663-7.674-7.174-3.686-2.639-6.046-4.314-8-5.011 0.081-0.209 0.128-0.442 0.128-0.686V1.825C80.067 0.814 79.253 0 78.253 0c-1.012 0-1.826 0.814-1.826 1.825v1.826c0 0.186 0.047 0.36 0.105 0.535C74.428 4.802 72.079 6.697 68.056 10c-0.477 0.384-0.919 0.767-1.337 1.128-0.046-0.058-0.105-0.116-0.163-0.174L54.929 1.651c-0.384-0.302-0.93-0.244-1.233 0.128-0.302 0.384-0.233 0.93 0.14 1.233l11.558 9.256c-1.686 1.5-2.86 2.674-3.732 3.546-2.256 2.244-2.57 5.395-2.57 11.872v2.546h2.267v2.326c0 3.593-0.605 7.046-1.709 10.267 1.372 5.511 5.767 5.523 18.604 5.523 17.151 0 18.976 0 19.151-14v-6.663C97.404 21.941 96.718 18.965 95.613 16.523zM90.462 16.732H65.917c0.07-1.314 1.767-2.721 5.093-5.442 6.883-5.639 6.883-5.639 14.116-0.465C89.335 13.837 91.079 15.093 90.462 16.732z" fill="#000000" data-fill-palette-color="accent"></path></svg></g></svg></g><g><path d="M2.788 50.488l-0.442 1.467-1.229-0.371 1.357-4.496 1.228 0.371-0.457 1.514 13.125 3.961 0.457-1.514 1.229 0.37-1.357 4.496-1.229-0.371 0.443-1.467z" fill="#000000" data-fill-palette-color="accent"></path><path d="M7.901 38.715l-0.787 1.268-1.091-0.676 1.683-2.714 16.933-0.388-11.019-6.715-0.797 1.285-1.09-0.676 2.343-3.779 1.091 0.676-0.771 1.243 12.742 7.9-0.896 1.446-16.935 0.41 11.005 6.718 0.933-1.505 1.091 0.676-2.48 4-1.091-0.677 0.787-1.268z" fill="#000000" data-fill-palette-color="accent"></path><path d="M51.837 18.891l-4.167 2.164-0.591-1.138 1.262-0.656-2.343-2.18-6.348 3.297 0.463 3.157 1.483-0.77 0.592 1.138-4.167 2.165-0.592-1.139 1.36-0.706-2.109-15.8 1.262-0.655 11.882 10.722 1.422-0.738zM45.091 16.241l-7.03-6.54 1.397 9.466z" fill="#000000" data-fill-palette-color="accent"></path><path d="M74.123 1.288l-5.72 0.021 0.022 6.227 5.074-0.018-0.005-1.463 1.273-0.004 0.015 3.999-1.273 0.005-0.005-1.254-5.074 0.019 0.023 6.198 1.701-0.006 0.005 1.283-4.696 0.017-0.005-1.283 1.413-0.005-0.05-13.71-1.413 0.006-0.005-1.284 9.879-0.036-0.019 0.139 0.31 3.213-1.163 0.183z" fill="#000000" data-fill-palette-color="accent"></path><path d="M84.921 2.977l-1.394-0.37 0.328-1.24 4.539 1.203-0.328 1.24-1.616-0.428-3.512 13.252 5.702 1.511 1.081-2.719 1.075 0.409-0.963 2.626 0.019 0.005-0.032 0.043-0.403 1.17-0.225-0.081-0.005 0.02-9.502-2.519 0.329-1.24 1.395 0.369z" fill="#000000" data-fill-palette-color="accent"></path><path d="M105.664 29.439l-3.969-2.51 0.686-1.085 1.203 0.761 0.703-3.122-6.045-3.824-2.494 1.989 1.412 0.893-0.686 1.085-3.968-2.511 0.686-1.084 1.295 0.819 12.589-9.777 1.202 0.761-3.282 15.664 1.354 0.857zM104.556 22.276l2.111-9.366-7.475 5.972z" fill="#000000" data-fill-palette-color="accent"></path><path d="M112.046 34.45v0c1.124 1.307 2.288 1.995 3.493 2.062v0c0.689 0.038 1.289-0.164 1.802-0.605 0.518-0.445 0.837-0.939 0.958-1.48 0.116-0.537 0.093-1.086-0.067-1.649-0.161-0.553-0.383-1.132-0.666-1.736-0.284-0.605-0.56-1.216-0.829-1.833-0.269-0.618-0.47-1.218-0.605-1.802-0.13-0.579-0.108-1.163 0.068-1.752 0.167-0.589 0.519-1.116 1.057-1.578v0c0.94-0.809 2.015-1.116 3.223-0.922 1.204 0.189 2.305 0.865 3.304 2.027 1.003 1.167 1.828 2.36 2.475 3.579v0l-0.022 0.02 0.045 0.052-2.034 2.091-0.882-0.751 1.31-1.468c-0.447-0.753-1.012-1.527-1.695-2.321-0.683-0.794-1.451-1.337-2.304-1.627-0.853-0.29-1.596-0.162-2.23 0.383-0.634 0.545-0.911 1.194-0.831 1.948 0.07 0.753 0.31 1.54 0.718 2.361 0.404 0.816 0.788 1.649 1.153 2.499 0.364 0.85 0.49 1.735 0.379 2.653-0.111 0.909-0.591 1.729-1.441 2.459v0c-1.136 0.977-2.357 1.292-3.662 0.945-1.3-0.352-2.49-1.156-3.571-2.413v0c-1.367-1.589-2.154-3.226-2.361-4.911v0l1.89-1.586 0.83 0.782-1.31 1.192c0.347 1.258 0.949 2.385 1.805 3.381z" fill="#000000" data-fill-palette-color="accent"></path><path d="M122.563 55.943l-1.922-4.284 1.171-0.525 0.643 1.434 5.555-2.493-3.242-7.225-5.555 2.493 0.705 1.57-1.171 0.526-1.927-4.293 1.171-0.526 0.619 1.38 12.507-5.613-0.619-1.38 1.171-0.526 1.927 4.294-1.171 0.525-0.705-1.57-5.682 2.55 3.243 7.225 5.682-2.55-0.644-1.434 1.171-0.526 1.825 4.067-1.171 0.525-0.578-1.289-12.508 5.613 0.676 1.507z" fill="#000000" data-fill-palette-color="accent"></path><path d="M20.393 87.298l-0.446-1.476 1.229-0.371 1.36 4.505-1.229 0.371-0.457-1.515-13.162 3.974 0.457 1.514-1.229 0.371-1.36-4.505 1.229-0.371 0.446 1.476z" fill="#000000" data-fill-palette-color="accent"></path><path d="M23.524 94.678l-0.786-1.269 1.091-0.676 1.682 2.714-7.197 15.372 10.945-6.891-0.797-1.285 1.091-0.677 2.343 3.78-1.091 0.676-0.775-1.251-12.777 7.921-0.896-1.446 7.187-15.389-10.945 6.891 0.933 1.505-1.091 0.677-2.479-4 1.09-0.676 0.787 1.268z" fill="#000000" data-fill-palette-color="accent"></path><path d="M46.494 134.535l-4.184-2.174 0.591-1.139 1.263 0.656 0.44-3.179-6.365-3.307-2.33 2.198 1.492 0.775-0.592 1.139-4.175-2.169 0.591-1.139 1.36 0.706 11.75-10.836 1.262 0.656-1.941 15.931 1.43 0.743zM44.775 127.465l1.309-9.534-6.951 6.603z" fill="#000000" data-fill-palette-color="accent"></path><path d="M74.187 123.416l-5.74-0.023-0.025 6.248 5.084 0.02 0.006-1.472 1.283 0.005-0.016 4.009-1.283-0.005 0.005-1.254-5.084-0.02-0.025 6.218 1.701 0.007-0.005 1.283-4.706-0.019 0.005-1.283 1.423 0.005 0.055-13.748-1.422-0.006 0.005-1.284 9.909 0.04-0.021 0.139 0.286 3.215-1.165 0.184z" fill="#000000" data-fill-palette-color="accent"></path><path d="M80.174 122.347l-1.395 0.369-0.328-1.241 4.549-1.203 0.329 1.24-1.616 0.428 3.517 13.292 5.722-1.514-0.409-2.907 1.137-0.178 0.465 2.769 0.019-0.005-0.007 0.053 0.229 1.216-0.235 0.041 0.005 0.02-9.532 2.521-0.328-1.24 1.395-0.369z" fill="#000000" data-fill-palette-color="accent"></path><path d="M111.888 123.484l-3.986 2.52-0.686-1.085 1.203-0.76-2.525-1.982-6.063 3.833 0.725 3.12 1.421-0.899 0.686 1.085-3.978 2.514-0.685-1.084 1.295-0.819-3.441-15.609 1.202-0.76 12.784 9.703 1.362-0.861zM104.914 121.408l-7.576-5.933 2.202 9.33z" fill="#000000" data-fill-palette-color="accent"></path><path d="M118.774 114.454v0c1.125-1.307 1.631-2.56 1.518-3.761v0c-0.061-0.691-0.35-1.26-0.868-1.706-0.523-0.45-1.06-0.69-1.613-0.719-0.553-0.039-1.093 0.065-1.62 0.312-0.528 0.237-1.069 0.541-1.625 0.911-0.56 0.376-1.125 0.742-1.696 1.101-0.576 0.353-1.142 0.64-1.699 0.86-0.553 0.215-1.133 0.285-1.741 0.208-0.608-0.086-1.182-0.361-1.719-0.824v0c-0.945-0.814-1.414-1.83-1.406-3.048 0.007-1.228 0.512-2.425 1.516-3.591 1.004-1.166 2.065-2.16 3.184-2.982v0l0.023 0.019 0.045-0.053 2.364 1.707-0.596 0.983-1.654-1.083c-0.682 0.559-1.366 1.235-2.05 2.03-0.688 0.799-1.112 1.642-1.271 2.529-0.159 0.887 0.08 1.605 0.718 2.154 0.633 0.545 1.319 0.724 2.058 0.538 0.733-0.191 1.473-0.547 2.22-1.069 0.751-0.526 1.519-1.033 2.306-1.52 0.796-0.487 1.654-0.742 2.574-0.764 0.924-0.027 1.809 0.323 2.654 1.051v0c1.146 0.987 1.642 2.153 1.489 3.5-0.154 1.338-0.774 2.637-1.861 3.899v0c-1.367 1.588-2.871 2.608-4.511 3.06v0l-1.857-1.624 0.656-0.945 1.368 1.125c1.197-0.527 2.229-1.293 3.094-2.298z" fill="#000000" data-fill-palette-color="accent"></path><path d="M133.178 91.928l-1.929 4.292-1.17-0.526 0.652-1.452-5.571-2.504-3.259 7.25 5.572 2.504 0.705-1.57 1.171 0.527-1.929 4.292-1.171-0.526 0.62-1.38-12.541-5.636-0.62 1.379-1.17-0.526 1.929-4.292 1.171 0.526-0.706 1.57 5.699 2.561 3.258-7.25-5.698-2.561-0.653 1.451-1.17-0.526 1.835-4.083 1.17 0.526-0.583 1.298 12.541 5.636 0.677-1.506z" fill="#000000" data-fill-palette-color="accent"></path><path d="M2.616 71.544c0-3.442 2.79-6.233 6.233-6.232 3.442 0 6.233 2.79 6.233 6.232 0 3.442-2.79 6.233-6.233 6.233-3.442 0-6.233-2.79-6.233-6.233z" fill="#000000" data-fill-palette-color="accent"></path><path d="M124.068 71.544c0-3.442 2.79-6.233 6.233-6.232 3.442 0 6.233 2.79 6.233 6.232 0 3.442-2.79 6.233-6.233 6.233-3.442 0-6.233-2.79-6.233-6.233z" fill="#000000" data-fill-palette-color="accent"></path></g></svg></g></svg></g></svg></g></svg></g></svg></g><defs></defs></svg><rect width="320" height="360" fill="none" stroke="none" visibility="hidden"></rect></g></svg></g></svg>