<?xml version="1.0" encoding="iso-8859-1"?>
<!-- Uploaded to: SVG Repo, www.svgrepo.com, Generator: SVG Repo Mixer Tools -->
<!DOCTYPE svg PUBLIC "-//W3C//DTD SVG 1.1//EN" "http://www.w3.org/Graphics/SVG/1.1/DTD/svg11.dtd">
<svg fill="#000000" version="1.1" id="Capa_1" xmlns="http://www.w3.org/2000/svg" xmlns:xlink="http://www.w3.org/1999/xlink" 
	 width="800px" height="800px" viewBox="0 0 46.359 46.359"
	 xml:space="preserve">
<g>
	<path d="M28.12,3.705v-1.54C28.12,0.969,27.15,0,25.955,0h-5.568c-1.196,0-2.135,0.969-2.135,2.165v1.54
		C8.654,5.949,1.572,14.531,1.572,24.746c0,11.917,9.688,21.613,21.607,21.613c11.917,0,21.609-9.696,21.609-21.613
		C44.788,14.531,37.65,5.948,28.12,3.705z M37.535,24.126c-0.277,0.313-0.678,0.497-1.098,0.498l-11.791,0.03
		c-0.392,0-0.657-0.153-0.935-0.43c-0.277-0.275-0.324-0.65-0.324-1.041V11.462c0-0.419,0.07-0.817,0.381-1.096
		c0.312-0.28,0.672-0.413,1.088-0.367c6.832,0.752,12.223,6.163,13.035,12.977C37.944,23.393,37.812,23.812,37.535,24.126z"/>
</g>
</svg>